<svg width="27" height="30" viewBox="0 0 27 30" fill="none" xmlns="http://www.w3.org/2000/svg">
<path d="M21.8551 7.08768C21.7771 7.08764 21.7006 7.06588 21.6341 7.02479C21.5675 6.9837 21.5135 6.92486 21.4778 6.85476C21.4422 6.78465 21.4265 6.70599 21.4323 6.62741C21.438 6.54884 21.4652 6.47339 21.5106 6.40938C21.7688 6.04512 21.9066 5.60786 21.9043 5.1599C21.9035 4.64133 21.7199 4.14002 21.3862 3.74588C21.0526 3.35174 20.5909 3.09057 20.0838 3.00921C19.5768 2.92785 19.0576 3.03163 18.6195 3.30194C18.1814 3.57224 17.8529 3.99138 17.6931 4.48417C17.6563 4.58985 17.5799 4.67675 17.4804 4.72627C17.3809 4.77578 17.2662 4.78395 17.1608 4.74905C17.0554 4.71414 16.9677 4.63892 16.9165 4.53951C16.8654 4.4401 16.8548 4.32441 16.8871 4.21722C17.1097 3.53055 17.5673 2.9465 18.1777 2.56989C18.7882 2.19328 19.5116 2.04876 20.218 2.16229C20.9245 2.27582 21.5678 2.63995 22.0324 3.18933C22.497 3.7387 22.7525 4.43736 22.7532 5.1599C22.7562 5.78702 22.5632 6.39911 22.2017 6.909C22.1622 6.96455 22.1102 7.00976 22.0499 7.04085C21.9896 7.07193 21.9228 7.08799 21.8551 7.08768Z" fill="#1B1C1F"/>
<path d="M25.1618 12.0415C25.092 12.0415 25.0234 12.0241 24.9619 11.9909C24.9004 11.9577 24.8479 11.9097 24.8092 11.8512C24.7704 11.7926 24.7466 11.7253 24.7397 11.6552C24.7328 11.5851 24.7432 11.5144 24.7698 11.4493C24.9181 11.0811 24.9931 10.6869 24.9904 10.2894C24.9952 9.86607 24.9169 9.44599 24.7599 9.05348C24.6028 8.66097 24.3703 8.30384 24.0756 8.00276C23.781 7.70168 23.4301 7.46266 23.0434 7.29952C22.6566 7.13638 22.2417 7.05238 21.8225 7.05238C21.4034 7.05238 20.9885 7.13638 20.6017 7.29952C20.215 7.46266 19.8641 7.70168 19.5694 8.00276C19.2748 8.30384 19.0422 8.66097 18.8852 9.05348C18.7282 9.44599 18.6498 9.86607 18.6547 10.2894C18.6547 10.403 18.61 10.512 18.5304 10.5924C18.4509 10.6727 18.343 10.7179 18.2305 10.7179C18.1179 10.7179 18.01 10.6727 17.9305 10.5924C17.8509 10.512 17.8062 10.403 17.8062 10.2894C17.8008 9.75314 17.9006 9.22112 18.1 8.7241C18.2994 8.22707 18.5944 7.77491 18.9679 7.39377C19.3414 7.01262 19.786 6.71005 20.276 6.50355C20.7659 6.29705 21.2916 6.19073 21.8225 6.19073C22.3535 6.19073 22.8791 6.29705 23.3691 6.50355C23.8591 6.71005 24.3037 7.01262 24.6772 7.39377C25.0507 7.77491 25.3457 8.22707 25.545 8.7241C25.7444 9.22112 25.8443 9.75314 25.8388 10.2894C25.8418 10.7998 25.7451 11.3058 25.5542 11.7784C25.5218 11.8565 25.4673 11.9232 25.3974 11.97C25.3276 12.0168 25.2456 12.0417 25.1618 12.0415Z" fill="#1B1C1F"/>
<path d="M22.9898 18.5541C22.852 18.5541 22.7154 18.5468 22.5809 18.5335C22.5255 18.5279 22.4717 18.5113 22.4226 18.4847C22.3735 18.4581 22.3301 18.4219 22.2949 18.3784C22.2596 18.3348 22.2332 18.2846 22.2171 18.2308C22.2011 18.1769 22.1957 18.1203 22.2012 18.0643C22.2068 18.0084 22.2232 17.954 22.2496 17.9044C22.2759 17.8549 22.3117 17.811 22.3548 17.7754C22.398 17.7398 22.4476 17.7131 22.501 17.6969C22.5543 17.6807 22.6103 17.6752 22.6657 17.6808C22.7718 17.6914 22.8794 17.6968 22.9886 17.6971C23.6514 17.6978 24.2977 17.4883 24.8363 17.0981C25.3749 16.708 25.7786 16.1568 25.9905 15.5225C26.2024 14.8881 26.2118 14.2026 26.0173 13.5626C25.8228 12.9225 25.4342 12.3604 24.9065 11.9553C24.8165 11.8872 24.757 11.7856 24.741 11.6731C24.7251 11.5606 24.7541 11.4464 24.8216 11.3555C24.8891 11.2645 24.9896 11.2044 25.101 11.1884C25.2124 11.1723 25.3255 11.2016 25.4155 11.2698C26.0842 11.7835 26.5765 12.4962 26.8231 13.3075C27.0697 14.1187 27.0582 14.9876 26.7902 15.7919C26.5222 16.5962 26.0112 17.2953 25.3291 17.7908C24.6471 18.2864 23.8283 18.5533 22.9881 18.5541H22.9898Z" fill="#1B1C1F"/>
<path d="M21.4299 27.5383C21.3233 27.5383 21.2206 27.4978 21.1422 27.4248C21.0638 27.3518 21.0155 27.2517 21.0069 27.1444C20.9983 27.0371 21.03 26.9304 21.0957 26.8456C21.1614 26.7609 21.2563 26.7042 21.3616 26.6869C22.1018 26.5659 22.7749 26.1821 23.2598 25.6044C23.7447 25.0267 24.0095 24.2931 24.0066 23.5358C24.0066 23.2219 23.9618 22.9098 23.8734 22.6089C23.8576 22.555 23.8525 22.4984 23.8583 22.4424C23.8642 22.3865 23.8809 22.3322 23.9075 22.2828C23.9341 22.2333 23.9701 22.1897 24.0134 22.1543C24.0567 22.1189 24.1065 22.0925 24.1599 22.0765C24.2134 22.0606 24.2694 22.0554 24.3248 22.0613C24.3802 22.0672 24.4339 22.0841 24.4828 22.111C24.5318 22.1379 24.575 22.1742 24.61 22.218C24.6451 22.2617 24.6712 22.312 24.687 22.366C24.799 22.7456 24.8561 23.1396 24.8567 23.5358C24.8603 24.4965 24.5242 25.4271 23.909 26.1598C23.2937 26.8926 22.4397 27.3794 21.5007 27.5327C21.4773 27.5363 21.4536 27.5382 21.4299 27.5383Z" fill="#1B1C1F"/>
<path d="M24.2791 22.9162C24.182 22.9163 24.0878 22.8827 24.0123 22.8211C23.9367 22.7595 23.8844 22.6736 23.864 22.5777C23.8436 22.4819 23.8564 22.3818 23.9002 22.2943C23.944 22.2068 24.0162 22.1371 24.1047 22.0969C24.6583 21.844 25.1279 21.4353 25.4574 20.9197C25.787 20.4042 25.9624 19.8037 25.9628 19.19C25.9656 18.4762 25.7284 17.7826 25.29 17.2228C25.2232 17.1333 25.1938 17.0209 25.2081 16.9098C25.2224 16.7986 25.2792 16.6976 25.3663 16.6282C25.4535 16.5589 25.5641 16.5268 25.6744 16.5389C25.7847 16.5509 25.886 16.6062 25.9564 16.6927C26.3316 17.1754 26.5932 17.738 26.7213 18.3379C26.8494 18.9377 26.8407 19.5592 26.6958 20.1552C26.5509 20.7511 26.2737 21.306 25.8852 21.7777C25.4966 22.2495 25.0069 22.6258 24.453 22.878C24.3984 22.903 24.3391 22.916 24.2791 22.9162Z" fill="#1B1C1F"/>
<path d="M17.6531 30C16.4406 29.9986 15.2781 29.5115 14.4207 28.6454C13.5633 27.7794 13.081 26.6052 13.0796 25.3804V2.7209C13.0607 2.33755 13.1222 1.95449 13.2602 1.59685C13.3982 1.23921 13.6094 0.915079 13.8801 0.645716C14.1786 0.376133 14.5365 0.182543 14.9241 0.0810962C15.3117 -0.0203509 15.7176 -0.0267135 16.1081 0.0625391C17.9865 0.511948 19.7486 1.36017 21.2773 2.55079C21.365 2.6221 21.4211 2.72571 21.4333 2.83881C21.4454 2.95191 21.4125 3.06525 21.3419 3.15389C21.2713 3.24254 21.1688 3.29922 21.0568 3.31147C20.9448 3.32373 20.8326 3.29055 20.7449 3.21924C19.3192 2.11885 17.6825 1.32987 15.9389 0.902383C15.6814 0.840474 15.413 0.841536 15.156 0.90548C14.899 0.969424 14.6609 1.0944 14.4613 1.27003C14.2768 1.46067 14.134 1.68833 14.0421 1.93827C13.9503 2.1882 13.9114 2.45483 13.9281 2.7209V25.3804C13.9284 26.2402 14.2202 27.074 14.7549 27.743C15.2896 28.412 16.035 28.8759 16.8671 29.0575C17.6991 29.2391 18.5676 29.1274 19.3281 28.7411C20.0886 28.3548 20.6951 27.7171 21.0469 26.9341C21.0934 26.8306 21.1788 26.75 21.2841 26.71C21.3895 26.67 21.5063 26.674 21.6088 26.7209C21.7113 26.7679 21.7911 26.8541 21.8307 26.9606C21.8702 27.067 21.8664 27.185 21.8198 27.2885C21.4555 28.0961 20.869 28.7811 20.1304 29.2618C19.3917 29.7425 18.5318 29.9987 17.6531 30Z" fill="#1B1C1F"/>
<path d="M5.15276 7.08768C5.08536 7.08772 5.01891 7.07153 4.95893 7.04046C4.89896 7.00938 4.84717 6.96432 4.80787 6.909C4.4464 6.39911 4.25341 5.78702 4.25639 5.1599C4.25702 4.43736 4.51258 3.7387 4.9772 3.18933C5.44182 2.63995 6.08508 2.27582 6.79153 2.16229C7.49798 2.04876 8.22136 2.19328 8.83183 2.56989C9.44231 2.9465 9.89991 3.53055 10.1225 4.21722C10.1413 4.27103 10.1492 4.32808 10.1458 4.38503C10.1425 4.44198 10.1279 4.49768 10.1029 4.54886C10.0779 4.60003 10.0431 4.64566 10.0005 4.68306C9.95782 4.72046 9.9082 4.74888 9.85453 4.76666C9.80086 4.78443 9.74422 4.79121 9.68792 4.78657C9.63163 4.78194 9.57681 4.76601 9.5267 4.73969C9.47658 4.71338 9.43217 4.67722 9.39608 4.63335C9.35998 4.58947 9.33292 4.53875 9.31649 4.48417C9.15712 3.99074 8.82876 3.57089 8.39041 3.30006C7.95206 3.02923 7.43247 2.92517 6.92498 3.00659C6.41749 3.088 5.95538 3.34955 5.62168 3.74424C5.28798 4.13892 5.10457 4.64087 5.1044 5.1599C5.10215 5.60787 5.23991 6.04513 5.49808 6.40938C5.54356 6.4734 5.57068 6.54884 5.57647 6.62741C5.58225 6.70599 5.56648 6.78465 5.53087 6.85476C5.49527 6.92486 5.44122 6.9837 5.37466 7.02479C5.30811 7.06588 5.23077 7.08765 5.15276 7.08768Z" fill="#1B1C1F"/>
<path d="M1.84549 12.0415C1.76148 12.0416 1.67933 12.0164 1.60947 11.9693C1.53961 11.9221 1.48518 11.8551 1.45309 11.7767C1.26241 11.3046 1.16569 10.7992 1.16844 10.2894C1.16298 9.75313 1.26284 9.22111 1.46223 8.72409C1.66162 8.22707 1.95659 7.77491 2.33008 7.39376C2.70357 7.01262 3.14816 6.71005 3.63815 6.50355C4.12815 6.29705 4.65381 6.19073 5.18474 6.19073C5.71567 6.19073 6.24133 6.29705 6.73132 6.50355C7.22131 6.71005 7.66591 7.01262 8.03939 7.39376C8.41288 7.77491 8.70786 8.22707 8.90725 8.72409C9.10664 9.22111 9.20649 9.75313 9.20104 10.2894C9.20104 10.403 9.15634 10.512 9.07678 10.5924C8.99723 10.6727 8.88933 10.7179 8.77682 10.7179C8.66431 10.7179 8.5564 10.6727 8.47685 10.5924C8.39729 10.512 8.3526 10.403 8.3526 10.2894C8.35745 9.86607 8.27909 9.44599 8.12206 9.05348C7.96504 8.66097 7.73247 8.30383 7.43782 8.00276C7.14318 7.70168 6.79232 7.46265 6.40557 7.29952C6.01881 7.13638 5.60386 7.05238 5.18474 7.05238C4.76561 7.05238 4.35066 7.13638 3.96391 7.29952C3.57715 7.46265 3.22629 7.70168 2.93165 8.00276C2.637 8.30383 2.40443 8.66097 2.24741 9.05348C2.09038 9.44599 2.01203 9.86607 2.01688 10.2894C2.01398 10.6875 2.08895 11.0822 2.23747 11.451C2.2799 11.5558 2.27954 11.6733 2.23645 11.7779C2.19337 11.8824 2.11107 11.9655 2.00754 12.0089C1.95612 12.0303 1.90109 12.0413 1.84549 12.0415Z" fill="#1B1C1F"/>
<path d="M4.01772 18.5541C3.17667 18.5552 2.35655 18.2893 1.67324 17.794C0.989918 17.2987 0.477944 16.5991 0.209648 15.794C-0.058648 14.9888 -0.0697023 14.1189 0.178047 13.3071C0.425797 12.4953 0.919824 11.7826 1.59033 11.2698C1.68034 11.2016 1.79348 11.1723 1.90486 11.1884C2.01624 11.2044 2.11673 11.2645 2.18424 11.3555C2.25175 11.4464 2.28073 11.5606 2.26482 11.6731C2.24891 11.7856 2.1894 11.8872 2.0994 11.9553C1.57319 12.3612 1.18612 12.9234 0.992589 13.5629C0.799061 14.2024 0.808806 14.8871 1.02046 15.5207C1.2321 16.1544 1.63502 16.7051 2.17256 17.0955C2.71009 17.4858 3.35523 17.6962 4.01729 17.6971C4.12646 17.6971 4.23407 17.6917 4.34012 17.6809C4.39555 17.6752 4.45154 17.6807 4.50488 17.6969C4.55823 17.7131 4.60788 17.7398 4.65102 17.7754C4.69415 17.811 4.72992 17.8549 4.75628 17.9045C4.78264 17.954 4.79907 18.0084 4.80464 18.0644C4.81021 18.1203 4.80481 18.1769 4.78875 18.2308C4.77268 18.2847 4.74627 18.3348 4.71101 18.3784C4.67575 18.4219 4.63235 18.4581 4.58327 18.4847C4.53419 18.5113 4.4804 18.5279 4.42497 18.5336C4.29219 18.5468 4.15559 18.5541 4.01772 18.5541Z" fill="#1B1C1F"/>
<path d="M5.57729 27.5383C5.55414 27.5381 5.53103 27.5363 5.50814 27.5327C4.56912 27.3794 3.71512 26.8926 3.09987 26.1598C2.48462 25.4271 2.14855 24.4965 2.15214 23.5358C2.15274 23.1396 2.20989 22.7456 2.32183 22.366C2.33763 22.312 2.36379 22.2617 2.39882 22.218C2.43386 22.1742 2.47708 22.1379 2.52603 22.111C2.57497 22.0841 2.62868 22.0672 2.68408 22.0613C2.73949 22.0554 2.7955 22.0606 2.84892 22.0765C2.90235 22.0925 2.95214 22.1189 2.99546 22.1543C3.03877 22.1897 3.07476 22.2333 3.10137 22.2828C3.12798 22.3322 3.14469 22.3865 3.15054 22.4424C3.15639 22.4984 3.15128 22.555 3.13548 22.6089C3.0471 22.9098 3.00224 23.2219 3.00228 23.5358C2.99933 24.2931 3.26414 25.0267 3.74904 25.6044C4.23395 26.1821 4.90709 26.5659 5.64729 26.6869C5.7525 26.7042 5.84741 26.7609 5.91313 26.8456C5.97884 26.9304 6.01055 27.0371 6.00194 27.1444C5.99333 27.2517 5.94504 27.3518 5.86667 27.4248C5.78829 27.4978 5.68559 27.5383 5.57899 27.5383H5.57729Z" fill="#1B1C1F"/>
<path d="M2.72881 22.9162C2.66882 22.916 2.60954 22.903 2.55488 22.878C2.00091 22.6259 1.511 22.2498 1.12226 21.7781C0.73351 21.3064 0.45612 20.7516 0.311092 20.1556C0.166065 19.5596 0.157203 18.9381 0.285179 18.3382C0.413155 17.7382 0.674613 17.1755 1.04975 16.6927C1.08374 16.6472 1.12638 16.609 1.17518 16.5803C1.22399 16.5516 1.27797 16.5331 1.33397 16.5257C1.38996 16.5184 1.44685 16.5224 1.50128 16.5376C1.55571 16.5527 1.6066 16.5787 1.65097 16.614C1.69533 16.6493 1.73227 16.6931 1.75963 16.743C1.78699 16.7929 1.80421 16.8478 1.81028 16.9045C1.81636 16.9612 1.81117 17.0186 1.79501 17.0732C1.77886 17.1279 1.75206 17.1787 1.7162 17.2228C1.27782 17.7826 1.0406 18.4762 1.04339 19.19C1.04377 19.8037 1.21923 20.4042 1.54876 20.9197C1.87829 21.4353 2.34794 21.844 2.90147 22.0969C2.99001 22.1371 3.06221 22.2068 3.10602 22.2943C3.14984 22.3818 3.16261 22.4819 3.1422 22.5777C3.1218 22.6736 3.06946 22.7595 2.99392 22.8211C2.91837 22.8827 2.8242 22.9162 2.72711 22.9162H2.72881Z" fill="#1B1C1F"/>
<path d="M9.354 30C8.47551 29.9985 7.61594 29.7421 6.87751 29.2614C6.13908 28.7807 5.55287 28.096 5.18858 27.2885C5.14206 27.185 5.13816 27.067 5.17774 26.9606C5.21732 26.8542 5.29714 26.768 5.39963 26.721C5.50213 26.674 5.61891 26.67 5.72428 26.71C5.82966 26.75 5.91499 26.8306 5.96151 26.9341C6.31371 27.7163 6.92031 28.3533 7.6805 28.739C8.44069 29.1248 9.30868 29.2362 10.1402 29.0546C10.9718 28.8731 11.7168 28.4096 12.2514 27.7412C12.786 27.0728 13.0787 26.2397 13.0796 25.3804V2.7209C13.0963 2.45483 13.0569 2.18822 12.965 1.93829C12.8731 1.68835 12.7303 1.46069 12.5458 1.27005C12.3464 1.0944 12.1083 0.9694 11.8514 0.905453C11.5944 0.841506 11.3261 0.84046 11.0687 0.902404C9.32479 1.32796 7.68784 2.11601 6.26229 3.21626C6.17429 3.28002 6.06548 3.30737 5.95816 3.29271C5.85084 3.27805 5.75313 3.22249 5.68507 3.13741C5.617 3.05233 5.58372 2.94417 5.59205 2.83511C5.60039 2.72605 5.6497 2.62433 5.72989 2.55081C7.25866 1.36013 9.02092 0.5119 10.8994 0.0625605C11.2899 -0.0266559 11.6958 -0.0202744 12.0833 0.0811725C12.4708 0.18262 12.8286 0.376191 13.127 0.645738C13.3977 0.915101 13.609 1.23923 13.747 1.59687C13.8849 1.95451 13.947 2.33755 13.9281 2.7209V25.3804C13.9267 26.6052 13.4439 27.7794 12.5865 28.6455C11.7291 29.5115 10.5666 29.9986 9.354 30Z" fill="#1B1C1F"/>
<path d="M13.5039 8.98891C13.465 8.98895 13.4263 8.98347 13.3889 8.97263C13.3353 8.95736 13.2852 8.93156 13.2415 8.89672C13.1977 8.86188 13.1612 8.81868 13.134 8.76958C13.1067 8.72048 13.0894 8.66644 13.0828 8.61056C13.0763 8.55467 13.0807 8.49803 13.0958 8.44387C13.319 7.64345 14.1699 6.17287 15.7765 6.33484C15.8884 6.3462 15.9913 6.40202 16.0625 6.49001C16.1337 6.578 16.1674 6.69096 16.1561 6.80403C16.1449 6.91711 16.0896 7.02104 16.0025 7.09296C15.9154 7.16488 15.8036 7.1989 15.6916 7.18754C14.3833 7.05899 13.9163 8.66026 13.9099 8.67654C13.8849 8.76606 13.8318 8.84494 13.7586 8.90129C13.6854 8.95764 13.596 8.9884 13.5039 8.98891Z" fill="#1B1C1F"/>
<path d="M13.5034 11.116C13.4112 11.1159 13.3215 11.0855 13.248 11.0294C13.1744 10.9732 13.1209 10.8944 13.0957 10.8049C13.0766 10.7384 12.61 9.17959 11.314 9.31457C11.202 9.32593 11.0901 9.29189 11.0029 9.21993C10.9158 9.14797 10.8605 9.04398 10.8492 8.93085C10.838 8.81772 10.8717 8.70471 10.9429 8.61668C11.0142 8.52864 11.1171 8.4728 11.2291 8.46144C12.8412 8.2999 13.6866 9.77048 13.9098 10.5709C13.9249 10.6251 13.9293 10.6817 13.9228 10.7376C13.9162 10.7935 13.8988 10.8475 13.8716 10.8966C13.8444 10.9457 13.8079 10.9889 13.7641 11.0238C13.7204 11.0586 13.6702 11.0844 13.6166 11.0997C13.5798 11.1104 13.5417 11.1158 13.5034 11.116Z" fill="#1B1C1F"/>
<path d="M19.3158 14.013C18.7284 14.0135 18.1482 13.8832 17.6163 13.6314C17.0845 13.3796 16.6142 13.0124 16.2389 12.5561C16.2016 12.5131 16.1733 12.463 16.1555 12.4088C16.1377 12.3545 16.1308 12.2972 16.1353 12.2403C16.1397 12.1833 16.1554 12.1278 16.1814 12.0771C16.2074 12.0263 16.2431 11.9814 16.2866 11.9448C16.33 11.9082 16.3803 11.8808 16.4344 11.8641C16.4885 11.8474 16.5454 11.8419 16.6016 11.8477C16.6579 11.8536 16.7125 11.8707 16.7621 11.8982C16.8117 11.9257 16.8553 11.9629 16.8905 12.0076C17.3054 12.5112 17.864 12.8734 18.49 13.0449C19.116 13.2163 19.7792 13.1887 20.3892 12.9658C20.9991 12.743 21.5263 12.3356 21.8988 11.7993C22.2713 11.2629 22.4712 10.6236 22.4711 9.96843C22.4711 9.88659 22.4681 9.80517 22.4622 9.72462C22.457 9.66798 22.463 9.61085 22.4799 9.55658C22.4967 9.50231 22.5242 9.45198 22.5605 9.40852C22.5968 9.36505 22.6414 9.32934 22.6915 9.30345C22.7417 9.27755 22.7964 9.26201 22.8526 9.25771C22.9087 9.25342 22.9652 9.26046 23.0186 9.27843C23.072 9.2964 23.1214 9.32493 23.1638 9.36237C23.2062 9.39981 23.2408 9.4454 23.2656 9.49648C23.2903 9.54757 23.3048 9.60313 23.3081 9.65991C23.3157 9.7619 23.3195 9.86473 23.3195 9.96843C23.3185 11.0407 22.8964 12.0688 22.1458 12.8271C21.3951 13.5853 20.3774 14.0118 19.3158 14.013Z" fill="#1B1C1F"/>
<path d="M21.8234 16.5025H21.8149C19.7507 16.4618 18.7809 14.6287 18.5565 13.665C18.532 13.555 18.5515 13.4397 18.6107 13.3441C18.6699 13.2484 18.764 13.1803 18.8726 13.1543C18.9812 13.1283 19.0956 13.1466 19.191 13.2052C19.2864 13.2638 19.355 13.3581 19.382 13.4675C19.4032 13.5532 19.9153 15.6078 21.8315 15.6455C21.944 15.6466 22.0514 15.6928 22.1302 15.7739C22.2091 15.855 22.2527 15.9644 22.2516 16.0781C22.2506 16.1917 22.2049 16.3003 22.1245 16.3799C22.0442 16.4595 21.9359 16.5036 21.8234 16.5025Z" fill="#1B1C1F"/>
<path d="M19.2365 22.2528H19.2013C19.0892 22.2434 18.9854 22.1895 18.9127 22.1028C18.84 22.0161 18.8043 21.9037 18.8136 21.7905C18.8749 21.3442 18.8457 20.8899 18.7279 20.4553C18.61 20.0207 18.4059 19.6149 18.128 19.2624C17.4575 18.5612 16.5629 18.1222 15.6027 18.0232C15.4904 18.015 15.386 17.9621 15.3124 17.8762C15.2388 17.7903 15.2019 17.6783 15.21 17.5649C15.2181 17.4516 15.2705 17.3461 15.3556 17.2717C15.4407 17.1974 15.5515 17.1602 15.6638 17.1684C16.8499 17.2841 17.9544 17.83 18.7729 18.7049C19.1249 19.1422 19.385 19.6474 19.5374 20.1896C19.6898 20.7318 19.7312 21.2997 19.6591 21.8586C19.6505 21.9659 19.6023 22.0661 19.524 22.1391C19.4458 22.2121 19.3431 22.2527 19.2365 22.2528Z" fill="#1B1C1F"/>
<path d="M16.5299 25.9632H16.51C16.4544 25.9606 16.3997 25.9469 16.3493 25.923C16.2989 25.8991 16.2536 25.8654 16.216 25.8238C16.1785 25.7823 16.1494 25.7336 16.1305 25.6807C16.1116 25.6278 16.1032 25.5716 16.1057 25.5154C16.1749 24.0062 17.1493 21.191 20.3322 21.3046C20.3879 21.3067 20.4427 21.3198 20.4934 21.3433C20.544 21.3667 20.5897 21.4 20.6276 21.4413C20.6655 21.4826 20.695 21.531 20.7145 21.5838C20.7339 21.6365 20.7428 21.6927 20.7407 21.7489C20.7387 21.8052 20.7257 21.8605 20.7024 21.9117C20.6792 21.9629 20.6462 22.009 20.6054 22.0473C20.5645 22.0856 20.5166 22.1154 20.4644 22.135C20.4121 22.1546 20.3565 22.1637 20.3008 22.1616C17.1591 22.0472 16.9601 25.4117 16.9533 25.5552C16.9481 25.6651 16.9012 25.7688 16.8224 25.8447C16.7436 25.9207 16.6389 25.9631 16.5299 25.9632Z" fill="#1B1C1F"/>
<path d="M8.72677 14.525C7.66528 14.5239 6.64758 14.0975 5.89691 13.3394C5.14625 12.5814 4.72392 11.5535 4.72257 10.4813C4.72257 10.3772 4.72639 10.2739 4.73402 10.1724C4.73732 10.1156 4.75177 10.06 4.77655 10.009C4.80132 9.95787 4.83592 9.91227 4.87832 9.87484C4.92072 9.8374 4.97008 9.80886 5.02352 9.79089C5.07695 9.77293 5.13339 9.76588 5.18955 9.77018C5.24571 9.77447 5.30045 9.79002 5.3506 9.81591C5.40075 9.8418 5.44529 9.87752 5.48162 9.92098C5.51796 9.96444 5.54537 10.0148 5.56224 10.069C5.57912 10.1233 5.58512 10.1804 5.57992 10.2371C5.57398 10.3176 5.57101 10.3991 5.57101 10.4813C5.57112 11.1364 5.77106 11.7755 6.14361 12.3116C6.51616 12.8478 7.04322 13.255 7.65307 13.4778C8.26291 13.7006 8.92592 13.7282 9.55185 13.5569C10.1778 13.3855 10.7362 13.0235 11.1512 12.5201C11.1868 12.4768 11.2306 12.4411 11.2799 12.4149C11.3292 12.3888 11.3832 12.3727 11.4386 12.3676C11.4941 12.3624 11.5501 12.3684 11.6033 12.3851C11.6565 12.4019 11.7059 12.429 11.7487 12.465C11.7915 12.501 11.8269 12.5452 11.8528 12.595C11.8787 12.6449 11.8946 12.6993 11.8997 12.7554C11.9048 12.8114 11.8988 12.8679 11.8823 12.9217C11.8657 12.9754 11.8389 13.0253 11.8032 13.0686C11.4279 13.5248 10.9576 13.8918 10.4259 14.1436C9.89416 14.3953 9.31402 14.5255 8.72677 14.525Z" fill="#1B1C1F"/>
<path d="M6.21666 17.0167C6.10415 17.0178 5.99582 16.9737 5.91551 16.8941C5.83519 16.8145 5.78947 16.7059 5.7884 16.5923C5.78734 16.4786 5.83101 16.3692 5.90981 16.2881C5.98861 16.207 6.09608 16.1608 6.2086 16.1597C8.12437 16.122 8.63683 14.0691 8.65804 13.9817C8.68506 13.8723 8.75369 13.778 8.84905 13.7194C8.94441 13.6607 9.05881 13.6424 9.16744 13.6684C9.27607 13.6944 9.37018 13.7626 9.42936 13.8582C9.48854 13.9539 9.50802 14.0692 9.48357 14.1792C9.26128 15.1407 8.28897 16.9738 6.22514 17.0167H6.21666Z" fill="#1B1C1F"/>
<path d="M6.30448 23.3395C6.19781 23.3399 6.09492 23.2997 6.0163 23.2268C5.93768 23.154 5.88911 23.054 5.88026 22.9466C5.80741 22.387 5.84843 21.8183 6.00082 21.2752C6.1532 20.7322 6.41373 20.2264 6.76645 19.7886C7.58464 18.9136 8.68905 18.3677 9.87513 18.252C9.98706 18.2454 10.0972 18.2831 10.1819 18.3572C10.2667 18.4313 10.3195 18.536 10.329 18.6488C10.3331 18.7049 10.3262 18.7613 10.3086 18.8148C10.2911 18.8682 10.2633 18.9176 10.2269 18.9602C10.1904 19.0027 10.146 19.0376 10.0962 19.0629C10.0464 19.0881 9.99221 19.1032 9.93664 19.1073C8.97503 19.2087 8.07939 19.6486 7.4066 20.3499C7.13019 20.7026 6.92736 21.1081 6.81034 21.5421C6.69332 21.9761 6.66454 22.4295 6.72573 22.875C6.735 22.9883 6.69936 23.1006 6.62664 23.1873C6.55393 23.274 6.4501 23.328 6.33799 23.3374L6.30448 23.3395Z" fill="#1B1C1F"/>
<path d="M9.01158 27.0494C8.90251 27.0495 8.79758 27.0072 8.71859 26.9313C8.63959 26.8553 8.5926 26.7515 8.58736 26.6415C8.58015 26.4979 8.37525 23.124 5.23984 23.247C5.12733 23.2512 5.01777 23.21 4.93527 23.1327C4.85277 23.0553 4.80408 22.948 4.79992 22.8343C4.79576 22.7207 4.83646 22.61 4.91307 22.5267C4.98969 22.4433 5.09594 22.3942 5.20845 22.39C8.38713 22.273 9.36581 25.0916 9.43495 26.6008C9.43752 26.657 9.4291 26.7132 9.41017 26.7661C9.39124 26.819 9.36217 26.8677 9.32463 26.9092C9.28709 26.9508 9.24181 26.9845 9.19137 27.0084C9.14093 27.0323 9.08633 27.046 9.03067 27.0485L9.01158 27.0494Z" fill="#1B1C1F"/>
<path d="M13.5036 25.8089H13.5011C13.4453 25.8086 13.3902 25.7972 13.3388 25.7753C13.2875 25.7534 13.2409 25.7215 13.2017 25.6815C13.1625 25.6414 13.1316 25.5939 13.1106 25.5417C13.0896 25.4896 13.079 25.4337 13.0794 25.3774C13.1073 24.5371 12.84 23.7139 12.3249 23.0534C11.8098 22.3929 11.0801 21.9377 10.2647 21.7682C10.1542 21.7467 10.0567 21.6817 9.99368 21.5876C9.93063 21.4934 9.90719 21.3779 9.92851 21.2663C9.94983 21.1547 10.0142 21.0562 10.1074 20.9925C10.2006 20.9288 10.315 20.9051 10.4255 20.9267C10.4607 20.9335 13.9512 21.6551 13.9279 25.383C13.9272 25.4962 13.8822 25.6045 13.8027 25.6843C13.7232 25.7641 13.6157 25.8089 13.5036 25.8089Z" fill="#1B1C1F"/>
</svg>
