<svg width="38" height="33" viewBox="0 0 38 33" fill="none" xmlns="http://www.w3.org/2000/svg">
<path d="M34.3226 13H3.67742C1.65484 13 0 14.575 0 16.5C0 18.425 1.65484 20 3.67742 20H34.3226C36.3452 20 38 18.425 38 16.5C38 14.575 36.3452 13 34.3226 13Z" fill="black"/>
<path d="M34.3226 26H3.67742C1.65484 26 0 27.575 0 29.5C0 31.425 1.65484 33 3.67742 33H34.3226C36.3452 33 38 31.425 38 29.5C38 27.575 36.3452 26 34.3226 26Z" fill="black"/>
<path d="M34.3226 0H3.67742C1.65484 0 0 1.575 0 3.5C0 5.425 1.65484 7 3.67742 7H34.3226C36.3452 7 38 5.425 38 3.5C38 1.575 36.3452 0 34.3226 0Z" fill="black"/>
</svg>
