<svg width="25" height="29" viewBox="0 0 25 29" fill="none" xmlns="http://www.w3.org/2000/svg">
<path d="M12.5003 25.0678C12.7716 25.0678 12.9918 24.8481 12.9918 24.5763V8.35594C12.9918 8.08412 12.7716 7.86441 12.5003 7.86441C12.229 7.86441 12.0088 8.08412 12.0088 8.35594V24.5763C12.0088 24.8481 12.229 25.0678 12.5003 25.0678Z" fill="#1B1C1F"/>
<path d="M7.58503 25.0678C7.85635 25.0678 8.07656 24.8481 8.07656 24.5763V8.35594C8.07656 8.08412 7.85635 7.86441 7.58503 7.86441C7.31371 7.86441 7.09351 8.08412 7.09351 8.35594V24.5763C7.09351 24.8481 7.31371 25.0678 7.58503 25.0678Z" fill="#1B1C1F"/>
<path d="M17.4156 25.0678C17.6869 25.0678 17.9071 24.8481 17.9071 24.5763V8.35594C17.9071 8.08412 17.6869 7.86441 17.4156 7.86441C17.1443 7.86441 16.9241 8.08412 16.9241 8.35594V24.5763C16.9241 24.8481 17.1443 25.0678 17.4156 25.0678Z" fill="#1B1C1F"/>
<path d="M23.8053 2.94915H16.9023C16.8483 2.33475 16.659 1.29861 16.0112 0.633576C15.6013 0.213322 15.0812 0 14.4658 0H9.55107C8.93568 0 8.41565 0.213322 8.00571 0.633576C7.35788 1.29861 7.16865 2.33475 7.11458 2.94915H1.19514C0.923817 2.94915 0.703613 3.16886 0.703613 3.44068C0.703613 3.71249 0.923817 3.9322 1.19514 3.9322H2.19834L3.13961 26.5527C3.1578 27.3991 3.68471 29 5.55202 29H19.4484C21.3157 29 21.8426 27.3991 21.8603 26.563L22.8021 3.9322H23.8053C24.0766 3.9322 24.2968 3.71249 24.2968 3.44068C24.2968 3.16886 24.0766 2.94915 23.8053 2.94915ZM8.71154 1.31778C8.93175 1.09266 9.20651 0.983051 9.55107 0.983051H14.4658C14.8104 0.983051 15.0852 1.09266 15.3054 1.31778C15.701 1.72231 15.8598 2.43403 15.9148 2.94915H8.10254C8.15759 2.43403 8.31636 1.72231 8.71154 1.31778ZM20.8778 26.5321C20.8748 26.6839 20.807 28.0169 19.4484 28.0169H5.55202C4.20819 28.0169 4.12758 26.6815 4.12217 26.5217L3.18188 3.9322H21.8181L20.8778 26.5321Z" fill="#1B1C1F"/>
</svg>
