<svg width="34" height="34" viewBox="0 0 34 34" fill="none" xmlns="http://www.w3.org/2000/svg">
<path d="M0.871447 5.07889C-0.290409 3.91703 -0.290409 2.03329 0.871448 0.871428C2.0333 -0.290429 3.91705 -0.290429 5.0789 0.871428L33.1286 28.9211C34.2905 30.083 34.2905 31.9668 33.1286 33.1286C31.9667 34.2905 30.083 34.2905 28.9211 33.1286L0.871447 5.07889Z" fill="#B6B6B7"/>
<path d="M28.9211 0.871393C30.083 -0.290465 31.9667 -0.290464 33.1285 0.871393C34.2904 2.03325 34.2904 3.91699 33.1285 5.07885L5.07885 33.1286C3.91699 34.2904 2.03325 34.2904 0.871393 33.1286C-0.290464 31.9667 -0.290464 30.083 0.871393 28.9211L28.9211 0.871393Z" fill="#B6B6B7"/>
</svg>
