<svg width="280" height="280" viewBox="0 0 280 280" fill="none" xmlns="http://www.w3.org/2000/svg">
<path fill-rule="evenodd" clip-rule="evenodd" d="M140 280C217.32 280 280 217.32 280 140C280 62.6801 217.32 0 140 0C62.6801 0 0 62.6801 0 140C0 217.32 62.6801 280 140 280ZM89.0459 114.77C101.614 114.77 111.802 104.582 111.802 92.0141C111.802 79.4462 101.614 69.2579 89.0459 69.2579C76.478 69.2579 66.2897 79.4462 66.2897 92.0141C66.2897 104.582 76.478 114.77 89.0459 114.77ZM213.71 92.0141C213.71 104.582 203.522 114.77 190.954 114.77C178.386 114.77 168.198 104.582 168.198 92.0141C168.198 79.4462 178.386 69.2579 190.954 69.2579C203.522 69.2579 213.71 79.4462 213.71 92.0141ZM77.2474 222.615C77.2474 188.278 105.296 160.357 140 160.357C174.704 160.357 202.753 188.278 202.753 222.615C202.753 226.481 205.887 229.615 209.753 229.615C213.619 229.615 216.753 226.481 216.753 222.615C216.753 180.452 182.342 146.357 140 146.357C97.6577 146.357 63.2474 180.452 63.2474 222.615C63.2474 226.481 66.3814 229.615 70.2474 229.615C74.1133 229.615 77.2474 226.481 77.2474 222.615Z" fill="#EDEDED"/>
</svg>
