<svg width="21" height="19" viewBox="0 0 21 19" fill="none" xmlns="http://www.w3.org/2000/svg">
<g clip-path="url(#clip0)">
<path d="M5.48003 12.6281C5.17987 12.3909 4.80366 12.2603 4.42073 12.2603C3.90032 12.2603 3.41569 12.4915 3.09111 12.8948C2.80729 13.2478 2.67878 13.6895 2.72943 14.1383C2.78015 14.5881 3.00453 14.991 3.36117 15.2729C3.66133 15.5101 4.03741 15.6408 4.42028 15.6408C4.94108 15.6408 5.42576 15.4091 5.75009 15.0054C6.03365 14.653 6.16203 14.2118 6.11157 13.7632C6.06098 13.3134 5.83673 12.9103 5.48003 12.6281ZM5.14582 14.5196C4.96931 14.7394 4.70481 14.8655 4.42028 14.8655C4.20817 14.8655 4.00814 14.7961 3.84197 14.6647C3.64873 14.512 3.52727 14.2942 3.49981 14.0514C3.47255 13.8096 3.54194 13.5713 3.69512 13.3809C3.87169 13.1614 4.1362 13.0356 4.42073 13.0356C4.63303 13.0356 4.83312 13.105 4.99922 13.2363C5.1924 13.3891 5.3138 13.607 5.34113 13.8499C5.36833 14.0915 5.29907 14.3293 5.14582 14.5196Z" fill="#1B1C1F"/>
<path d="M12.2967 8.65774C12.5524 8.65774 12.7997 8.60172 13.0322 8.49092C13.4433 8.29425 13.752 7.95022 13.9014 7.52213C14.0501 7.09676 14.0234 6.63901 13.8263 6.2336C13.5444 5.65252 12.9424 5.27702 12.2927 5.27702C12.0364 5.27702 11.7887 5.33323 11.5562 5.44416C11.1453 5.64018 10.8364 5.98396 10.6867 6.41218C10.5378 6.83787 10.5645 7.29568 10.7619 7.70129C11.0446 8.2823 11.6471 8.65774 12.2967 8.65774ZM11.4185 6.66809C11.4995 6.43647 11.6669 6.25027 11.89 6.14386C12.0174 6.08313 12.1528 6.05231 12.2926 6.05231C12.6474 6.05231 12.9756 6.25628 13.1288 6.57227C13.2351 6.7909 13.2495 7.03738 13.1695 7.26648C13.0886 7.49823 12.9209 7.68468 12.6981 7.79129C12.5712 7.85182 12.4361 7.88245 12.2967 7.88245C11.9416 7.88245 11.6127 7.67816 11.4588 7.36203C11.3527 7.14373 11.3383 6.89731 11.4185 6.66809Z" fill="#1B1C1F"/>
<path d="M8.07822 5.9182C8.20291 5.94637 8.33051 5.96064 8.45747 5.96064C9.2555 5.96064 9.9373 5.42091 10.1156 4.64737C10.2158 4.20875 10.1387 3.75721 9.8988 3.37577C9.65684 2.99135 9.27869 2.72414 8.83432 2.62348C8.70911 2.59505 8.581 2.58058 8.45346 2.58058C7.65595 2.58058 6.97486 3.12089 6.79712 3.8943C6.69608 4.3326 6.77263 4.78421 7.01265 5.16591C7.2548 5.55084 7.63334 5.81806 8.07822 5.9182ZM7.55271 4.06823C7.64903 3.64886 8.01949 3.35593 8.45346 3.35593C8.52317 3.35593 8.59353 3.36388 8.66273 3.37958C8.90513 3.43449 9.11104 3.5798 9.24258 3.78874C9.37218 3.99464 9.41379 4.23821 9.3599 4.4739C9.26487 4.88616 8.8853 5.18535 8.4574 5.18535C8.38789 5.18535 8.31779 5.17747 8.24879 5.1619C8.00631 5.10731 7.80041 4.96214 7.66893 4.7532C7.53959 4.54742 7.49831 4.30424 7.55271 4.06823Z" fill="#1B1C1F"/>
<path d="M4.99775 6.88532C5.35399 6.60305 5.57799 6.19983 5.62864 5.74997C5.6791 5.30147 5.55098 4.86033 5.26729 4.50725C4.94218 4.10416 4.45718 3.873 3.93676 3.873C3.55422 3.873 3.1784 4.00325 2.87817 4.24003C2.52186 4.52146 2.29774 4.92403 2.24689 5.37357C2.19611 5.82266 2.32455 6.26457 2.60876 6.61823C2.9336 7.02177 3.41868 7.25326 3.93967 7.25326C4.32254 7.25319 4.69836 7.12256 4.99775 6.88532ZM3.21297 6.13219C3.05946 5.94121 2.99001 5.70268 3.0174 5.46053C3.04479 5.21806 3.16613 5.00059 3.35866 4.84844C3.52476 4.71742 3.72472 4.64816 3.93683 4.64816C4.22162 4.64816 4.4867 4.77414 4.6634 4.99323C4.8162 5.18356 4.88546 5.42151 4.85826 5.6632C4.83093 5.90639 4.70947 6.12463 4.51636 6.27762C4.35103 6.40858 4.15158 6.47784 3.93974 6.47784C3.65462 6.4779 3.38973 6.35179 3.21297 6.13219Z" fill="#1B1C1F"/>
<path d="M20.8517 3.09195C20.7847 3.02437 20.6652 2.94381 20.4766 2.94381C20.2555 2.94381 19.668 2.94381 16.1001 5.97984C16.0284 6.04083 15.956 6.10266 15.8834 6.16494C15.2459 4.50201 14.1259 3.01946 12.6826 1.94711C11.0278 0.717563 9.05725 0.0672893 6.98426 0.0667725C6.98361 0.0667725 6.98316 0.0667725 6.98264 0.0667725C5.58363 0.0667725 3.88304 0.555593 2.54431 1.3427C0.903277 2.30742 -0.000322951 3.59763 8.65844e-08 4.97552C0.000516946 6.63903 0.938746 7.33485 1.69265 7.8939C2.30739 8.34983 2.79291 8.70989 2.79317 9.49901C2.79337 10.2881 2.3081 10.6478 1.69368 11.1033C0.940038 11.662 0.00200292 12.3574 0.00251978 14.0211C0.00290742 15.3988 0.907088 16.6894 2.54844 17.6549C3.88814 18.443 5.58964 18.9329 6.98891 18.9332C6.98988 18.9332 6.99072 18.9332 6.99162 18.9332C9.53102 18.9332 11.9182 17.9531 13.7136 16.1732C15.4862 14.4161 16.4721 12.0871 16.498 9.60516C17.0998 8.92025 17.6829 8.23948 18.2152 7.598C19.1259 6.50057 19.8262 5.59504 20.2966 4.90664C20.9198 3.99484 21.1927 3.4356 20.8517 3.09195ZM13.1679 15.6226C11.5185 17.2577 9.32537 18.158 6.99169 18.158C6.99098 18.158 6.98994 18.158 6.98923 18.158C4.48847 18.1572 0.77852 16.4198 0.777809 14.0209C0.777421 12.7477 1.44675 12.2514 2.15543 11.726C2.81785 11.2349 3.56866 10.6782 3.5684 9.49875C3.56801 8.31947 2.81701 7.76249 2.1544 7.27115C1.4454 6.74531 0.775677 6.24867 0.775289 4.97532C0.774966 3.50221 2.12965 2.4858 2.93725 2.011C4.14528 1.30077 5.73301 0.841997 6.98264 0.841997C6.98309 0.841997 6.98361 0.841997 6.984 0.841997C8.88934 0.842514 10.7 1.43987 12.2203 2.56934C13.6224 3.61114 14.6927 5.07359 15.2565 6.70738C13.5751 8.17552 11.7543 9.86824 10.3983 11.2286C8.14616 11.5201 7.83934 13.0211 7.61502 14.1237C7.42404 15.0626 7.30006 15.5165 6.57536 15.5747C6.39678 15.589 6.25135 15.7238 6.22351 15.9008C6.19559 16.0777 6.29257 16.2507 6.45809 16.3192C6.50468 16.3385 7.61308 16.7914 8.90807 16.7914C8.90794 16.7914 8.90827 16.7914 8.90807 16.7914C9.81051 16.7914 10.5851 16.5727 11.2093 16.1413C11.9785 15.6097 12.5001 14.7669 12.7622 13.6367C13.6482 12.7403 14.6605 11.6594 15.6616 10.546C15.4312 12.4629 14.5661 14.2365 13.1679 15.6226ZM11.9834 13.5633C11.5726 15.1911 10.539 16.0163 8.90846 16.0162C8.4785 16.0162 8.06637 15.9576 7.7202 15.8844C8.13369 15.4627 8.26284 14.8282 8.37467 14.2784C8.58768 13.2312 8.78913 12.2402 10.4371 12.0048L11.9834 13.5633ZM17.3365 7.44106C15.7998 9.27184 13.9398 11.3278 12.4086 12.891L11.1256 11.5978C12.5139 10.2159 14.2948 8.56808 15.9565 7.12597C16.1502 6.95787 16.3426 6.79189 16.5323 6.63011C18.4607 4.98553 19.4713 4.26981 19.9868 3.95834C19.6789 4.47694 18.9698 5.49522 17.3365 7.44106Z" fill="#1B1C1F"/>
</g>
<defs>
<clipPath id="clip0">
<rect width="21" height="19" fill="white"/>
</clipPath>
</defs>
</svg>
