<svg width="28" height="26" viewBox="0 0 28 26" fill="none" xmlns="http://www.w3.org/2000/svg">
<g clip-path="url(#clip0)">
<path d="M7.30671 17.2806C6.90649 16.956 6.40487 16.7773 5.8943 16.7773C5.20042 16.7773 4.55426 17.0937 4.12148 17.6455C3.74305 18.1286 3.57171 18.733 3.63925 19.3472C3.70687 19.9627 4.00604 20.514 4.48155 20.8997C4.88178 21.2244 5.38322 21.4031 5.8937 21.4031C6.5881 21.4031 7.23435 21.0861 7.66679 20.5337C8.04487 20.0514 8.21604 19.4478 8.14876 18.8339C8.08131 18.2183 7.78231 17.6667 7.30671 17.2806ZM6.86109 19.869C6.62575 20.1697 6.27308 20.3423 5.8937 20.3423C5.61089 20.3423 5.34419 20.2473 5.12263 20.0675C4.86498 19.8585 4.70303 19.5605 4.66642 19.2283C4.63007 18.8973 4.72258 18.5713 4.92683 18.3106C5.16226 18.0104 5.51493 17.8382 5.8943 17.8382C6.17737 17.8382 6.44416 17.9332 6.66563 18.1129C6.9232 18.3219 7.08506 18.6201 7.1215 18.9525C7.15777 19.2832 7.06542 19.6085 6.86109 19.869Z" fill="white"/>
<path d="M16.3956 11.8474C16.7366 11.8474 17.0663 11.7708 17.3763 11.6191C17.9243 11.35 18.336 10.8792 18.5353 10.2934C18.7335 9.71135 18.6978 9.08496 18.4351 8.53019C18.0592 7.73503 17.2566 7.22119 16.3902 7.22119C16.0486 7.22119 15.7182 7.2981 15.4083 7.4499C14.8604 7.71814 14.4485 8.18857 14.249 8.77455C14.0504 9.35709 14.086 9.98356 14.3491 10.5386C14.7262 11.3337 15.5295 11.8474 16.3956 11.8474ZM15.2246 9.12475C15.3326 8.8078 15.5559 8.553 15.8533 8.40739C16.0232 8.32428 16.2037 8.28211 16.3901 8.28211C16.8631 8.28211 17.3007 8.56122 17.5051 8.99363C17.6468 9.29281 17.666 9.6301 17.5593 9.9436C17.4514 10.2607 17.2279 10.5159 16.9308 10.6618C16.7616 10.7446 16.5814 10.7865 16.3956 10.7865C15.9221 10.7865 15.4836 10.507 15.2785 10.0744C15.1369 9.77562 15.1178 9.43843 15.2246 9.12475Z" fill="white"/>
<path d="M10.771 8.09858C10.9372 8.13713 11.1074 8.15667 11.2766 8.15667C12.3407 8.15667 13.2497 7.41809 13.4875 6.35955C13.6211 5.75934 13.5183 5.14144 13.1984 4.61947C12.8758 4.09343 12.3716 3.72776 11.7791 3.59002C11.6122 3.55112 11.4413 3.53131 11.2713 3.53131C10.2079 3.53131 9.29981 4.27069 9.06283 5.32905C8.9281 5.92882 9.03018 6.54681 9.3502 7.06913C9.67307 7.59588 10.1778 7.96155 10.771 8.09858ZM10.0703 5.56705C10.1987 4.99318 10.6927 4.59232 11.2713 4.59232C11.3642 4.59232 11.458 4.6032 11.5503 4.62468C11.8735 4.69983 12.148 4.89867 12.3234 5.18458C12.4962 5.46635 12.5517 5.79965 12.4799 6.12217C12.3532 6.68632 11.8471 7.09575 11.2765 7.09575C11.1838 7.09575 11.0904 7.08496 10.9984 7.06365C10.6751 6.98895 10.4005 6.79029 10.2252 6.50437C10.0528 6.22278 9.99774 5.89001 10.0703 5.56705Z" fill="white"/>
<path d="M6.66366 9.42201C7.13866 9.03575 7.43731 8.48398 7.50485 7.86838C7.57213 7.25464 7.40131 6.65097 7.02305 6.16781C6.58958 5.61622 5.9429 5.29989 5.24902 5.29989C4.73896 5.29989 4.23787 5.47812 3.83756 5.80215C3.36248 6.18726 3.06365 6.73814 2.99586 7.3533C2.92815 7.96784 3.0994 8.57257 3.47834 9.05652C3.91147 9.60873 4.55824 9.92551 5.25289 9.92551C5.76338 9.92542 6.26448 9.74665 6.66366 9.42201ZM4.28396 8.39141C4.07928 8.13007 3.98668 7.80366 4.0232 7.4723C4.05972 7.1405 4.2215 6.84291 4.47821 6.6347C4.69968 6.45541 4.9663 6.36063 5.2491 6.36063C5.62882 6.36063 5.98227 6.53303 6.21787 6.83283C6.4216 7.09329 6.51395 7.4189 6.47768 7.74964C6.44124 8.08242 6.27929 8.38107 6.02181 8.59042C5.80137 8.76963 5.53544 8.86441 5.25298 8.86441C4.87283 8.8645 4.51964 8.69192 4.28396 8.39141Z" fill="white"/>
<path d="M27.8023 4.23109C27.713 4.13861 27.5536 4.02836 27.3022 4.02836C27.0073 4.02836 26.224 4.02836 21.4668 8.18293C21.3712 8.26639 21.2747 8.351 21.1779 8.43623C20.3279 6.16064 18.8345 4.13189 16.9102 2.66446C14.7037 0.981925 12.0763 0.0920769 9.31234 0.0913696C9.31148 0.0913696 9.31088 0.0913696 9.31019 0.0913696C7.44484 0.0913696 5.17738 0.760281 3.39241 1.83738C1.20437 3.15752 -0.000430601 4.92307 1.15446e-07 6.8086C0.000689261 9.08498 1.25166 10.0372 2.25687 10.8022C3.07652 11.4261 3.72389 11.9188 3.72423 12.9986C3.72449 14.0784 3.07747 14.5707 2.25825 15.194C1.25338 15.9585 0.00267056 16.9102 0.0033597 19.1868C0.00387656 21.0721 1.20945 22.8381 3.39792 24.1594C5.18419 25.2378 7.45285 25.9081 9.31855 25.9086C9.31984 25.9086 9.32096 25.9086 9.32216 25.9086C12.708 25.9086 15.8909 24.5674 18.2848 22.1318C20.6483 19.7273 21.9627 16.5402 21.9973 13.1439C22.7998 12.2067 23.5772 11.2751 24.287 10.3973C25.5012 8.89552 26.4349 7.65636 27.0622 6.71435C27.8931 5.46662 28.257 4.70134 27.8023 4.23109ZM17.5572 21.3783C15.358 23.6158 12.4338 24.8477 9.32225 24.8477C9.3213 24.8477 9.31992 24.8477 9.31898 24.8477C5.98463 24.8467 1.03803 22.4692 1.03708 19.1865C1.03656 17.4442 1.92901 16.7651 2.87391 16.0461C3.75714 15.374 4.75821 14.6123 4.75786 12.9983C4.75735 11.3845 3.75602 10.6223 2.87253 9.94999C1.9272 9.23042 1.03424 8.55081 1.03372 6.80833C1.03329 4.79249 2.83954 3.40162 3.91633 2.7519C5.52704 1.78 7.64401 1.1522 9.31019 1.1522C9.31079 1.1522 9.31148 1.1522 9.312 1.1522C11.8524 1.15291 14.2667 1.97035 16.2937 3.51594C18.1632 4.94155 19.5903 6.9428 20.342 9.17852C18.1001 11.1876 15.6724 13.5039 13.8644 15.3655C10.8615 15.7644 10.4524 17.8183 10.1534 19.3272C9.89872 20.612 9.73341 21.2332 8.76714 21.3127C8.52904 21.3324 8.33513 21.5168 8.29801 21.7589C8.26079 22.001 8.39009 22.2378 8.61079 22.3316C8.6729 22.3579 10.1508 22.9777 11.8774 22.9778C11.8773 22.9778 11.8777 22.9778 11.8774 22.9778C13.0807 22.9778 14.1134 22.6784 14.9458 22.0881C15.9714 21.3606 16.6668 20.2073 17.0163 18.6607C18.1976 17.4341 19.5474 15.955 20.8821 14.4314C20.5749 17.0545 19.4215 19.4816 17.5572 21.3783ZM15.9778 18.5603C15.4301 20.7878 14.052 21.917 11.8779 21.9169C11.3047 21.9169 10.7552 21.8366 10.2936 21.7366C10.8449 21.1595 11.0171 20.2912 11.1662 19.5389C11.4502 18.1059 11.7188 16.7498 13.9162 16.4276L15.9778 18.5603ZM23.1153 10.1825C21.0664 12.6878 18.5864 15.5012 16.5448 17.6403L14.8341 15.8707C16.6852 13.9796 19.0598 11.7247 21.2753 9.75133C21.5336 9.52129 21.7902 9.29416 22.0431 9.07278C24.6142 6.8223 25.9617 5.84289 26.649 5.41667C26.2385 6.12634 25.293 7.51977 23.1153 10.1825Z" fill="white"/>
</g>
<defs>
<clipPath id="clip0">
<rect width="28" height="26" fill="white"/>
</clipPath>
</defs>
</svg>
