<svg width="191" height="29" viewBox="0 0 191 29" fill="none" xmlns="http://www.w3.org/2000/svg">
<g clip-path="url(#clip0)">
<path fill-rule="evenodd" clip-rule="evenodd" d="M5.08603 6.00256C5.57739 5.99962 7.03769 5.8681 7.65625 7.95573C8.07292 9.36198 8.73664 11.6655 9.64743 14.8662H10.0183C10.9951 11.4918 11.6661 9.18827 12.0312 7.95573C12.6562 5.84635 14.2188 6.0026 14.8438 6.0026L19.6658 6.00261V21.0026H14.751V12.1628H14.4215L11.6817 21.0026H7.98403L5.24431 12.1563H4.91474V21.0026H0V6.00261L5.08603 6.00256ZM26.7232 6.00261V14.8489H27.1153L30.4479 7.57466C31.0949 6.12706 32.4736 6.00261 32.4736 6.00261H37.2296V21.0026H32.2123V12.1563H31.8202L28.5529 19.4306C27.906 20.8716 26.4619 21.0026 26.4619 21.0026H21.7059V6.00261H26.7232ZM54.572 13.1307C53.8721 15.114 51.6742 16.5343 49.2409 16.5343H43.9791V21.0026H39.2079V13.1307H54.572Z" fill="white"/>
<path fill-rule="evenodd" clip-rule="evenodd" d="M49.4713 6.00256H38.958C39.2082 9.34207 42.0841 12.2009 45.0613 12.2009H54.9038C55.4718 9.42538 53.5165 6.00256 49.4713 6.00256Z" fill="white"/>
</g>
<g clip-path="url(#clip1)">
<path d="M164.368 20.7635H160.56L162.942 5.98499H166.749L164.368 20.7635Z" fill="white"/>
<path d="M178.17 6.34622C177.419 6.0472 176.228 5.71704 174.755 5.71704C170.995 5.71704 168.347 7.72933 168.331 10.6063C168.3 12.7289 170.227 13.9079 171.668 14.6156C173.141 15.3388 173.642 15.8109 173.642 16.4555C173.627 17.4456 172.451 17.9019 171.355 17.9019C169.835 17.9019 169.021 17.6667 167.783 17.1158L167.281 16.8797L166.749 20.1972C167.642 20.6055 169.287 20.9678 170.995 20.9837C174.99 20.9837 177.591 19.0025 177.622 15.9367C177.637 14.2543 176.619 12.9653 174.426 11.9119C173.094 11.2357 172.279 10.7797 172.279 10.0879C172.294 9.4589 172.968 8.81467 174.472 8.81467C175.709 8.78312 176.619 9.08172 177.308 9.38054L177.652 9.53747L178.17 6.34622V6.34622Z" fill="white"/>
<path d="M183.231 15.528C183.544 14.679 184.751 11.3931 184.751 11.3931C184.735 11.4246 185.064 10.5284 185.252 9.97822L185.518 11.2516C185.518 11.2516 186.239 14.7891 186.395 15.528C185.8 15.528 183.983 15.528 183.231 15.528ZM187.931 5.98499H184.985C184.077 5.98499 183.387 6.25204 182.995 7.21117L177.34 20.7633H181.335C181.335 20.7633 181.993 18.9393 182.134 18.5464C182.572 18.5464 186.459 18.5464 187.023 18.5464C187.132 19.0653 187.477 20.7633 187.477 20.7633H191.002L187.931 5.98499V5.98499Z" fill="white"/>
<path d="M157.38 5.98499L153.651 16.0625L153.244 14.0187C152.554 11.6604 150.392 9.09808 147.979 7.82405L151.395 20.7478H155.421L161.406 5.98499H157.38V5.98499Z" fill="white"/>
<path d="M150.189 5.98499H144.063L144 6.28359C148.779 7.50998 151.943 10.4661 153.244 14.0193L151.912 7.22726C151.693 6.28338 151.019 6.01612 150.189 5.98499Z" fill="#C5C5C5"/>
</g>
<path d="M86.7328 28.9358V27.011C86.7328 26.2731 86.2881 25.7919 85.5259 25.7919C85.1448 25.7919 84.7319 25.9203 84.4461 26.3373C84.2238 25.9844 83.9062 25.7919 83.4298 25.7919C83.1122 25.7919 82.7946 25.8882 82.5405 26.2411V25.8561H81.8735V28.9358H82.5405V27.2355C82.5405 26.6902 82.8263 26.4335 83.271 26.4335C83.7156 26.4335 83.9379 26.7223 83.9379 27.2355V28.9358H84.6049V27.2355C84.6049 26.6902 84.9225 26.4335 85.3353 26.4335C85.78 26.4335 86.0023 26.7223 86.0023 27.2355V28.9358H86.7328V28.9358ZM96.61 25.8561H95.5302V24.9258H94.8632V25.8561H94.2598V26.4656H94.8632V27.8771C94.8632 28.5829 95.1491 28.9999 95.9113 28.9999C96.1971 28.9999 96.5147 28.9037 96.7371 28.7754L96.5465 28.1979C96.3559 28.3262 96.1336 28.3583 95.9748 28.3583C95.6572 28.3583 95.5302 28.1658 95.5302 27.845V26.4656H96.61V25.8561V25.8561ZM102.263 25.7919C101.882 25.7919 101.628 25.9844 101.469 26.2411V25.8561H100.802V28.9358H101.469V27.2035C101.469 26.6902 101.692 26.4015 102.104 26.4015C102.231 26.4015 102.39 26.4335 102.517 26.4656L102.708 25.824C102.581 25.7919 102.39 25.7919 102.263 25.7919V25.7919ZM93.7199 26.1127C93.4023 25.8882 92.9577 25.7919 92.4813 25.7919C91.719 25.7919 91.2109 26.1769 91.2109 26.7864C91.2109 27.2997 91.592 27.5884 92.2589 27.6846L92.5765 27.7167C92.9259 27.7809 93.1165 27.8771 93.1165 28.0375C93.1165 28.2621 92.8624 28.4225 92.4177 28.4225C91.9731 28.4225 91.6238 28.2621 91.4014 28.1017L91.0838 28.615C91.4332 28.8716 91.9096 28.9999 92.386 28.9999C93.2753 28.9999 93.7834 28.5829 93.7834 28.0054C93.7834 27.4601 93.3705 27.1714 92.7353 27.0751L92.4177 27.0431C92.1319 27.011 91.9096 26.9468 91.9096 26.7543C91.9096 26.5298 92.1319 26.4015 92.4813 26.4015C92.8624 26.4015 93.2435 26.5619 93.434 26.6581L93.7199 26.1127V26.1127ZM111.442 25.7919C111.061 25.7919 110.807 25.9844 110.648 26.2411V25.8561H109.981V28.9358H110.648V27.2035C110.648 26.6902 110.87 26.4015 111.283 26.4015C111.41 26.4015 111.569 26.4335 111.696 26.4656L111.886 25.824C111.759 25.7919 111.569 25.7919 111.442 25.7919V25.7919ZM102.93 27.3959C102.93 28.3262 103.565 28.9999 104.55 28.9999C104.995 28.9999 105.312 28.9037 105.63 28.647L105.312 28.1017C105.058 28.2942 104.804 28.3904 104.518 28.3904C103.978 28.3904 103.597 28.0054 103.597 27.3959C103.597 26.8185 103.978 26.4335 104.518 26.4015C104.804 26.4015 105.058 26.4977 105.312 26.6902L105.63 26.1448C105.312 25.8882 104.995 25.7919 104.55 25.7919C103.565 25.7919 102.93 26.4656 102.93 27.3959V27.3959ZM109.092 27.3959V25.8561H108.425V26.2411C108.202 25.9523 107.885 25.7919 107.472 25.7919C106.614 25.7919 105.947 26.4656 105.947 27.3959C105.947 28.3262 106.614 28.9999 107.472 28.9999C107.916 28.9999 108.234 28.8395 108.425 28.5508V28.9358H109.092V27.3959ZM106.646 27.3959C106.646 26.8506 106.995 26.4015 107.567 26.4015C108.107 26.4015 108.488 26.8185 108.488 27.3959C108.488 27.9413 108.107 28.3904 107.567 28.3904C106.995 28.3583 106.646 27.9413 106.646 27.3959ZM98.6744 25.7919C97.7851 25.7919 97.1499 26.4335 97.1499 27.3959C97.1499 28.3583 97.7851 28.9999 98.7062 28.9999C99.1508 28.9999 99.5954 28.8716 99.9448 28.5829L99.6272 28.1017C99.3731 28.2942 99.0555 28.4225 98.7379 28.4225C98.325 28.4225 97.9122 28.23 97.8169 27.6846H100.072C100.072 27.5884 100.072 27.5242 100.072 27.428C100.104 26.4335 99.5319 25.7919 98.6744 25.7919V25.7919ZM98.6744 26.3694C99.0873 26.3694 99.3731 26.626 99.4366 27.1072H97.8486C97.9122 26.6902 98.198 26.3694 98.6744 26.3694ZM115.221 27.3959V24.6371H114.554V26.2411C114.332 25.9523 114.014 25.7919 113.601 25.7919C112.744 25.7919 112.077 26.4656 112.077 27.3959C112.077 28.3262 112.744 28.9999 113.601 28.9999C114.046 28.9999 114.364 28.8395 114.554 28.5508V28.9358H115.221V27.3959ZM112.776 27.3959C112.776 26.8506 113.125 26.4015 113.697 26.4015C114.237 26.4015 114.618 26.8185 114.618 27.3959C114.618 27.9413 114.237 28.3904 113.697 28.3904C113.125 28.3583 112.776 27.9413 112.776 27.3959ZM90.4804 27.3959V25.8561H89.8135V26.2411C89.5911 25.9523 89.2735 25.7919 88.8607 25.7919C88.0031 25.7919 87.3362 26.4656 87.3362 27.3959C87.3362 28.3262 88.0031 28.9999 88.8607 28.9999C89.3053 28.9999 89.6229 28.8395 89.8135 28.5508V28.9358H90.4804V27.3959ZM88.0031 27.3959C88.0031 26.8506 88.3525 26.4015 88.9242 26.4015C89.4641 26.4015 89.8452 26.8185 89.8452 27.3959C89.8452 27.9413 89.4641 28.3904 88.9242 28.3904C88.3525 28.3583 88.0031 27.9413 88.0031 27.3959Z" fill="white"/>
<path d="M103.502 2.47021H93.498V20.6273H103.502V2.47021Z" fill="#F4F4F4"/>
<path d="M94.1331 11.5487C94.1331 7.85951 95.8481 4.58739 98.4841 2.47014C96.5468 0.930314 94.1013 0 91.4335 0C85.1133 0 80 5.16482 80 11.5487C80 17.9325 85.1133 23.0973 91.4335 23.0973C94.1013 23.0973 96.5468 22.167 98.4841 20.6272C95.8481 18.542 94.1331 15.2378 94.1331 11.5487Z" fill="#C5C5C5"/>
<path d="M117 11.5487C117 17.9325 111.886 23.0973 105.566 23.0973C102.898 23.0973 100.453 22.167 98.5156 20.6272C101.183 18.51 102.867 15.2378 102.867 11.5487C102.867 7.85951 101.152 4.58739 98.5156 2.47014C100.453 0.930314 102.898 0 105.566 0C111.886 0 117 5.1969 117 11.5487Z" fill="white"/>
<defs>
<clipPath id="clip0">
<rect width="55" height="15" fill="white" transform="translate(0 6)"/>
</clipPath>
<clipPath id="clip1">
<rect width="47" height="15" fill="white" transform="translate(144 6)"/>
</clipPath>
</defs>
</svg>
