<svg width="36" height="36" viewBox="0 0 36 36" fill="none" xmlns="http://www.w3.org/2000/svg">
<g clip-path="url(#clip0)">
<path d="M18 10.5C17.9085 10.5 17.817 10.4835 17.73 10.4505L7.98 6.7005C7.6905 6.5895 7.5 6.3105 7.5 6C7.5 5.6895 7.6905 5.4105 7.98 5.2995L17.73 1.5495C17.904 1.4835 18.0945 1.4835 18.2685 1.5495L28.0185 5.2995C28.3095 5.4105 28.5 5.6895 28.5 6C28.5 6.3105 28.3095 6.5895 28.02 6.7005L18.27 10.4505C18.183 10.4835 18.0915 10.5 18 10.5V10.5ZM10.3395 6L18 8.946L25.6605 6L18 3.054L10.3395 6Z" fill="black"/>
<path d="M18 22.5C17.9085 22.5 17.817 22.4835 17.73 22.4505L7.98 18.7005C7.6905 18.5895 7.5 18.3105 7.5 18V6C7.5 5.586 7.836 5.25 8.25 5.25C8.664 5.25 9 5.586 9 6V17.4855L18 20.9475L27 17.4855V6C27 5.586 27.336 5.25 27.75 5.25C28.164 5.25 28.5 5.586 28.5 6V18C28.5 18.3105 28.3095 18.5895 28.02 18.7005L18.27 22.4505C18.183 22.4835 18.0915 22.5 18 22.5Z" fill="black"/>
<path d="M18 22.5C17.586 22.5 17.25 22.164 17.25 21.75V9.75C17.25 9.336 17.586 9 18 9C18.414 9 18.75 9.336 18.75 9.75V21.75C18.75 22.164 18.414 22.5 18 22.5Z" fill="black"/>
<path d="M15.75 32.9996C15.522 32.9996 15.297 32.8961 15.15 32.6996C14.901 32.3681 14.9685 31.8986 15.3 31.6496L17.499 29.9996L15.3 28.3496C14.9685 28.1006 14.901 27.6311 15.15 27.2996C15.399 26.9681 15.8685 26.9021 16.2 27.1496L19.2 29.3996C19.389 29.5406 19.5 29.7641 19.5 29.9996C19.5 30.2351 19.389 30.4586 19.2 30.5996L16.2 32.8496C16.065 32.9501 15.9075 32.9996 15.75 32.9996V32.9996Z" fill="black"/>
<path d="M18 30.7502C15.732 30.7502 13.5855 30.6422 11.619 30.4307C8.898 30.1562 0 28.9892 0 25.5001C0 24.0766 1.4685 22.8871 4.362 21.9661C4.8375 21.8191 5.3475 22.1897 5.3475 22.6817C5.3475 23.0447 5.0955 23.3476 4.7535 23.4166C2.3535 24.1891 1.5 25.0216 1.5 25.5001C1.5 26.4991 4.6875 28.2242 11.775 28.9382C13.692 29.1452 15.7845 29.2502 18 29.2502C18.414 29.2502 18.75 29.5862 18.75 30.0002C18.75 30.4142 18.414 30.7502 18 30.7502Z" fill="black"/>
<path d="M23.235 30.5257C22.848 30.5257 22.5195 30.2287 22.488 29.8372C22.455 29.4247 22.7625 29.0617 23.175 29.0287C30.9 28.3972 34.5 26.5507 34.5 25.5007C34.5 25.0177 33.6315 24.1762 31.182 23.3962C30.7875 23.2702 30.57 22.8487 30.6945 22.4542C30.8205 22.0597 31.2405 21.8422 31.6365 21.9667C34.5315 22.8877 36 24.0772 36 25.5007C36 29.1982 26.277 30.2797 23.2965 30.5242C23.2755 30.5257 23.2545 30.5257 23.235 30.5257Z" fill="black"/>
</g>
<defs>
<clipPath id="clip0">
<rect width="36" height="36" fill="white"/>
</clipPath>
</defs>
</svg>
