<svg width="26" height="26" viewBox="0 0 26 26" fill="none" xmlns="http://www.w3.org/2000/svg">
<path d="M17.2884 12.4925L11.8895 8.56797C11.6914 8.42435 11.4284 8.40272 11.2112 8.51433C10.9923 8.62507 10.8556 8.85002 10.8556 9.09314V16.9396C10.8556 17.1853 10.9923 17.4094 11.2112 17.5202C11.3038 17.5669 11.405 17.5902 11.5071 17.5902C11.6404 17.5902 11.7753 17.5478 11.8895 17.4639L17.2884 13.5428C17.4588 13.4174 17.5583 13.2236 17.5583 13.0177C17.5592 12.8083 17.4571 12.6154 17.2884 12.4925Z" fill="black"/>
<path d="M13.0004 0.00195312C5.81931 0.00195312 0 5.82126 0 13.0024C0 20.1809 5.81931 25.9985 13.0004 25.9985C20.1798 25.9985 26 20.18 26 13.0024C26.0009 5.82126 20.1798 0.00195312 13.0004 0.00195312ZM13.0004 23.8294C7.0202 23.8294 2.17164 18.9835 2.17164 13.0024C2.17164 7.02388 7.0202 2.17186 13.0004 2.17186C18.9798 2.17186 23.8275 7.02302 23.8275 13.0024C23.8284 18.9835 18.9798 23.8294 13.0004 23.8294Z" fill="black"/>
</svg>
