<svg width="29" height="29" viewBox="0 0 29 29" fill="none" xmlns="http://www.w3.org/2000/svg">
<g clip-path="url(#clip0)">
<path d="M27.0529 7.25283C25.1172 3.90016 21.9917 1.50182 18.2522 0.49985C14.5127 -0.502236 10.6069 0.0120042 7.25407 1.94781C3.90129 3.88356 1.50306 7.00899 0.501091 10.7485C-0.500883 14.488 0.013358 18.3939 1.94905 21.7466C3.88469 25.0993 7.01023 27.4976 10.7497 28.4996C11.9984 28.8342 13.2655 28.9997 14.5246 28.9997C17.036 28.9997 19.5147 28.341 21.7479 27.0517C25.1006 25.116 27.4989 21.9905 28.5009 18.251C29.5029 14.5114 28.9886 10.6056 27.0529 7.25283ZM27.0428 17.8604C26.1452 21.2104 23.9967 24.0105 20.9931 25.7446C17.9895 27.4787 14.4904 27.9393 11.1403 27.0418C7.79018 26.1442 4.9902 23.9957 3.25604 20.992C1.52193 17.9885 1.06127 14.4893 1.95896 11.1392C2.85666 7.7891 5.00516 4.98919 8.00875 3.25496C10.0096 2.09978 12.2298 1.50975 14.4799 1.50975C15.6076 1.50975 16.7432 1.65804 17.8615 1.95772C21.2115 2.85536 24.0116 5.00386 25.7457 8.00751C27.4798 11.0111 27.9405 14.5102 27.0428 17.8604Z" fill="#FBC1E8"/>
<path d="M21.4542 13.1322L12.1354 7.75195C11.6408 7.46643 11.0504 7.46654 10.5559 7.75189C10.0614 8.03736 9.76609 8.54877 9.76609 9.11977V19.8804C9.76609 20.4513 10.0613 20.9627 10.5559 21.2482C10.8031 21.391 11.0743 21.4623 11.3455 21.4623C11.6168 21.4623 11.8881 21.3908 12.1353 21.2482L21.4543 15.8679C21.9488 15.5823 22.2439 15.071 22.2439 14.5C22.2439 13.9291 21.9487 13.4177 21.4542 13.1322ZM20.6994 14.5608L11.3805 19.9411C11.3691 19.9477 11.3454 19.9613 11.3105 19.9411C11.2755 19.9209 11.2755 19.8936 11.2755 19.8804V9.11982C11.2755 9.10668 11.2755 9.07938 11.3105 9.05916C11.3242 9.05123 11.3362 9.04851 11.3464 9.04851C11.3622 9.04851 11.3737 9.05514 11.3806 9.05916L20.6995 14.4395C20.7109 14.446 20.7345 14.4597 20.7345 14.5001C20.7345 14.5406 20.7108 14.5543 20.6994 14.5608Z" fill="#FBC1E8"/>
<path d="M23.4097 7.61477C21.6149 5.29601 18.9167 3.73817 16.0069 3.34061C15.5944 3.28413 15.2134 3.57317 15.157 3.98625C15.1006 4.39922 15.3897 4.77973 15.8026 4.8362C18.3238 5.18063 20.6614 6.53027 22.2162 8.53874C22.3649 8.73087 22.588 8.83146 22.8135 8.83146C22.9749 8.83146 23.1375 8.77998 23.2749 8.67349C23.6045 8.41838 23.6649 7.94436 23.4097 7.61477Z" fill="#FBC1E8"/>
</g>
<defs>
<clipPath id="clip0">
<rect width="29" height="29" fill="white"/>
</clipPath>
</defs>
</svg>
