<svg width="25" height="25" viewBox="0 0 25 25" fill="none" xmlns="http://www.w3.org/2000/svg">
<path fill-rule="evenodd" clip-rule="evenodd" d="M21 18.1111C22.5955 18.1111 23.8889 19.4045 23.8889 21C23.8889 22.5955 22.5955 23.8889 21 23.8889H4C2.40451 23.8889 1.11111 22.5955 1.11111 21C1.11111 19.4045 2.40451 18.1111 4 18.1111H7.08144C6.61632 17.7872 6.18781 17.4143 5.80338 17H4C1.79086 17 0 18.7909 0 21C0 23.2091 1.79086 25 4 25H21C23.2091 25 25 23.2091 25 21C25 18.7909 23.2091 17 21 17H19.1966C18.8122 17.4143 18.3837 17.7872 17.9186 18.1111H21ZM18.4444 11V8C18.4444 4.74766 15.8079 2.11111 12.5556 2.11111C9.30321 2.11111 6.66667 4.74766 6.66667 8V11C6.66667 14.2523 9.30321 16.8889 12.5556 16.8889C15.8079 16.8889 18.4444 14.2523 18.4444 11ZM12.5556 1C8.68956 1 5.55556 4.13401 5.55556 8V11C5.55556 14.866 8.68956 18 12.5556 18C16.4215 18 19.5556 14.866 19.5556 11V8C19.5556 4.13401 16.4215 1 12.5556 1Z" fill="#1B1C1F"/>
</svg>
