<svg width="64" height="64" viewBox="0 0 64 64" fill="none" xmlns="http://www.w3.org/2000/svg">
<path d="M27.3699 47.3795C27.0992 47.3795 26.8264 47.3206 26.5715 47.202C25.9099 46.892 25.4871 46.227 25.4871 45.4963V18.5026C25.4871 17.7719 25.9098 17.1069 26.5715 16.7969C27.2326 16.487 28.0153 16.5879 28.5759 17.0558L44.7718 30.5526C45.2014 30.9107 45.4497 31.4403 45.4497 31.9994C45.4497 32.5585 45.2016 33.0882 44.7718 33.4462L28.5759 46.9431C28.2311 47.2304 27.8025 47.3795 27.3699 47.3795ZM29.2537 22.5233V41.4756L40.6247 31.9994L29.2537 22.5233Z" fill="white"/>
<path d="M31.9442 64C26.5823 64.001 21.1891 62.663 16.3045 59.9127C15.3982 59.4026 15.0769 58.254 15.5876 57.3477C16.0971 56.4414 17.2457 56.1197 18.1525 56.6308C29.1402 62.8162 43.0487 60.9034 51.9746 51.9745C62.9886 40.9602 62.9886 23.0398 51.9746 12.0256C40.9604 1.00946 23.0387 1.01044 12.0251 12.0256C1.01157 23.0398 1.01157 40.9602 12.0251 51.9745C12.7607 52.7101 12.7607 53.9029 12.0251 54.6385C11.2905 55.3741 10.0977 55.3741 9.36214 54.6385C-3.12024 42.155 -3.12024 21.8451 9.36214 9.36154C21.8451 -3.12002 42.1542 -3.121 54.6386 9.36154C67.1209 21.8451 67.1209 42.155 54.6386 54.6385C48.4894 60.7876 40.254 64 31.9442 64Z" fill="white"/>
</svg>
